# AST/ASF file generated using VICON BodyLanguage
# -----------------------------------------------
:version 1.10
:name VICON
:units
  mass 1.0
  length 0.45
  angle deg
:documentation
   .ast/.asf automatically generated from VICON data using
   VICON BodyBuilder and BodyLanguage model FoxedUp or BRILLIANT.MOD
:root
   order TX TY TZ RX RY RZ
   axis XYZ
   position 0 0 0  
   orientation 0 0 0 
:bonedata
  begin
     id 1 
     name lhipjoint
     direction 0.627412 -0.730575 0.26947 
     length 2.49821 
     axis 0 0 0  XYZ
  end
  begin
     id 2 
     name lfemur
     direction 0.34202 -0.939693 0  
     length 6.89165  
     axis 0 0 20  XYZ
    dof rx ry rz
    limits (-160.0 20.0)
           (-70.0 70.0)
           (-60.0 70.0)
  end
  begin
     id 3 
     name ltibia
     direction 0.34202 -0.939693 0   
     length 7.91287   
     axis 0 0 20   XYZ
    dof rx
    limits (-10.0 170.0)
  end
  begin
     id 4 
     name lfoot
     direction 0.0941675 -0.258723 0.96135   
     length 2.16919   
     axis -90 7.62852e-016 20   XYZ
    dof rx rz
    limits (-45.0 90.0)
           (-70.0 20.0)
  end
  begin
     id 5 
     name ltoes
     direction 1.5347e-011 -4.21941e-011 1   
     length 1.08535   
     axis -90 7.62852e-016 20   XYZ
    dof rx
    limits (-90.0 20.0)
  end
  begin
     id 6 
     name rhipjoint
     direction -0.614241 -0.740361 0.27308   
     length 2.46519  
     axis 0 0 0  XYZ 
  end
  begin
     id 7 
     name rfemur
     direction -0.34202 -0.939693 0   
     length 7.27512   
     axis 0 0 -20   XYZ
    dof rx ry rz
    limits (-160.0 20.0)
           (-70.0 70.0)
           (-70.0 60.0)
  end
  begin
     id 8 
     name rtibia
     direction -0.34202 -0.939693 0   
     length 7.89523   
     axis 0 0 -20   XYZ
    dof rx
    limits (-10.0 170.0)
 end
 begin
     id 9 
     name rfoot
     direction -0.0860444 -0.236405 0.967837   
     length 2.29534  
     axis -90 -7.62852e-016 -20   XYZ
    dof rx rz
    limits (-45.0 90.0)
           (-20.0 70.0)
  end
  begin
     id 10 
     name rtoes
     direction -1.53608e-011 -4.21861e-011 1   
     length 1.14915   
     axis -90 -7.62852e-016 -20   XYZ
    dof rx
    limits (-90.0 20.0)
  end
  begin
     id 11 
     name lowerback
     direction -0.00734074 0.997215 -0.0742143   
     length 2.13469   
     axis 0 0 0   XYZ
    dof rx ry rz
    limits (-20.0 45.0)
           (-30.0 30.0)
           (-30.0 30.0)
  end
  begin
     id 12 
     name upperback
     direction 0.0285728 0.99958 -0.00488656   
     length 2.13416   
     axis 0 0 0   XYZ
    dof rx ry rz
    limits (-20.0 45.0)
           (-30.0 30.0)
           (-30.0 30.0)
  end
  begin
     id 13 
     name thorax
     direction 0.0316844 0.999056 0.0297249   
     length 2.14463   
     axis 0 0 0   XYZ
    dof rx ry rz
    limits (-20.0 45.0)
           (-30.0 30.0)
           (-30.0 30.0)
  end
  begin
     id 14 
     name lowerneck
     direction -0.0281545 0.996802 0.0747864   
     length 1.79004   
     axis 0 0 0   XYZ
    dof rx ry rz
    limits (-20.0 45.0)
           (-30.0 30.0)
           (-30.0 30.0)
  end
  begin
     id 15 
     name upperneck
     direction -0.00100185 0.982732 -0.185031   
     length 1.79988   
     axis 0 0 0   XYZ
    dof rx ry rz
    limits (-20.0 45.0)
           (-30.0 30.0)
           (-30.0 30.0)
  end
  begin
     id 16
     name head
     direction 0.00403747 0.997539 -0.0700022  
     length 1.81696  
     axis 0 0 0   XYZ
    dof rx ry rz
    limits (-20.0 45.0)
           (-30.0 30.0)
           (-30.0 30.0)
  end
  begin
     id 17 
     name lclavicle
     direction 0.959882 0.242905 -0.140082  
     length 3.87755  
     axis 0 0 0   XYZ
    dof ry rz
    limits (-20.0 10.0)
           (0.0 20.0)
  end
  begin
     id 18 
     name lhumerus
     direction 1 -4.4895e-011 3.76166e-027   
     length 5.14601   
     axis 180 -30 -90   XYZ
    dof rx ry rz
    limits (-60.0 90.0)
           (-90.0 90.0)
           (-90.0 90.0)
  end
  begin
     id 19
     name lradius
     direction 1 -4.48966e-011 -3.24039e-027   
     length 3.64452   
     axis 180 -30 -90   XYZ
    dof rx
    limits (-10.0 170.0)
  end
  begin
     id 20
     name lwrist
     direction 1 -4.48999e-011 2.57119e-027   
     length 1.82226   
     axis -1.61769e-015 90 90   XYZ
    dof ry
    limits (-180.0 0.0)
 end
  begin
     id 21 
     name lhand
     direction 1 -4.48961e-011 5.13984e-027   
     length 0.56228   
     axis -3.27988e-015 90 90   XYZ
    dof rx rz
    limits (-90.0 90.0)
           (-45.0 45.0)
  end
  begin
     id 22 
     name lfingers
     direction 1 -4.48991e-011 1.02836e-026   
     length 0.453325   
     axis -6.5598e-015 90 90   XYZ
    dof rx
    limits (0.0 90.0)
  end
  begin
     id 23
     name lthumb
     direction 0.707107 -6.34956e-011 0.707107   
     length 0.650886   
     axis -90 45 2.19363e-014   XYZ
    dof rx rz
    limits (-45.0 45.0)
           (-45.0 45.0)
  end
  begin
     id 24 
     name rclavicle
     direction -0.929201 0.345171 -0.132073   
     length 3.55416  
     axis 0 0 0   XYZ 
    dof ry rz
    limits (-10.0 20.0)
           (-20.0 0.0)
  end
  begin
     id 25 
     name rhumerus
     direction -1 -4.48979e-011 4.53734e-027  
     length 5.33913   
     axis 180 30 90   XYZ
    dof rx ry rz
    limits (-90.0 60.0)
           (-90.0 90.0)
           (-90.0 90.0)
  end
  begin
     id 26 
     name rradius
     direction -1 -4.4896e-011 -2.24007e-027   
     length 3.56478   
     axis 180 30 90   XYZ
    dof rx
    limits (-10.0 170.0)
  end
  begin
     id 27 
     name rwrist
     direction -1 -4.48923e-011 2.56866e-027   
     length 1.78239   
     axis -1.61769e-015 -90 -90   XYZ
    dof ry
    limits (-180.0 0.0)
  end
  begin
     id 28
     name rhand
     direction -1 -4.48914e-011 5.13667e-027   
     length 0.857474   
     axis -3.27988e-015 -90 -90   XYZ
    dof rx rz
    limits (-90.0 90.0)
           (-45.0 45.0)
  end
  begin
     id 29
     name rfingers
     direction -1 -4.49112e-011 1.02998e-026   
     length 0.691318   
     axis -6.5598e-015 -90 -90   XYZ
    dof rx
    limits (0.0 90.0)
  end
  begin
     id 30
     name rthumb
     direction -0.707107 -6.34979e-011 0.707107   
     length 0.992598   
     axis -90 -45 -2.19363e-014   XYZ
    dof rx rz
    limits (-45.0 45.0)
           (-45.0 45.0)
  end
:hierarchy
  begin
    root lhipjoint rhipjoint lowerback
    lhipjoint lfemur
    lfemur ltibia
    ltibia lfoot
    lfoot ltoes
    rhipjoint rfemur
    rfemur rtibia
    rtibia rfoot
    rfoot rtoes
    lowerback upperback
    upperback thorax
    thorax lowerneck lclavicle rclavicle
    lowerneck upperneck
    upperneck head
    lclavicle lhumerus
    lhumerus lradius
    lradius lwrist
    lwrist lhand lthumb
    lhand lfingers
    rclavicle rhumerus
    rhumerus rradius
    rradius rwrist
    rwrist rhand rthumb
    rhand rfingers
  end

#!OML:ASF F:\VICON\USERDATA\INSTALL\Justin4\Justin4.ASF
:FULLY-SPECIFIED
:DEGREES
87
root 5.66735 15.0033 10.5573 7.50717 -61.8199 -7.13854
lowerback 22.4411 0.410335 -10.2261
upperback 6.9868 -2.53894 -5.82724
thorax -4.67106 -1.41758 0.147567
lowerneck -6.90499 -0.408959 -14.0181
upperneck 11.5017 -0.315558 11.1206
head 4.58448 -0.127852 5.79108
rclavicle -1.90833e-014 4.77083e-014
rhumerus -25.4371 2.87341 -82.6786
rradius 136.676
rwrist 9.37779
rhand -27.7312 19.9718
rfingers 7.12502
rthumb -1.12629 -10.005
lclavicle -1.90833e-014 4.77083e-014
lhumerus 26.9927 -25.9164 83.3489
lradius 109.974
lwrist 8.52854
lhand -6.33647 7.9063
lfingers 7.12502
lthumb 19.5089 36.9476
rfemur -33.2568 -11.9463 6.94513
rtibia 78.3415
rfoot -25.7463 -1.94207
rtoes -20.2653
lfemur -30.3689 -4.76858 10.8266
ltibia 58.081
lfoot -22.5354 -16.6064
ltoes -38.8631
88
root 5.65268 14.8839 10.4421 6.745 -61.8179 -6.33336
lowerback 22.6804 0.298195 -10.3476
upperback 6.98668 -2.76463 -5.99274
thorax -4.77998 -1.52417 0.0960236
lowerneck -7.18503 -0.616709 -13.5207
upperneck 11.4941 -0.622401 11.1422
head 4.66849 -0.247948 5.69894
rclavicle 8.74653e-014 3.81667e-014
rhumerus -25.198 3.15372 -83.1694
rradius 136.891
rwrist 9.34527
rhand -28.3781 19.4622
rfingers 7.12502
rthumb -1.75107 -10.5104
lclavicle 8.74653e-014 3.81667e-014
lhumerus 27.0066 -25.4013 83.2547
lradius 110.227
lwrist 9.04347
lhand -5.56079 7.89364
lfingers 7.12502
lthumb 20.2545 36.8576
rfemur -34.1298 -13.3175 6.59149
rtibia 79.7616
rfoot -26.5564 -0.950397
rtoes -21.7188
lfemur -30.5175 -3.94292 10.672
ltibia 58.4459
lfoot -24.6246 -14.0275
ltoes -42.4448
89
root 5.62935 14.7959 10.3387 5.6834 -61.8021 -5.5504
lowerback 23.3183 0.176783 -10.6562
upperback 6.93316 -3.08585 -5.88968
thorax -5.11597 -1.66396 0.475508
lowerneck -7.66529 -0.752542 -13.1846
upperneck 11.8356 -0.771382 10.8468
head 4.87328 -0.315273 5.54675
rclavicle 7.95139e-015 1.27222e-014
rhumerus -24.9819 3.57285 -83.3192
rradius 137.145
rwrist 8.79838
rhand -28.2747 19.2188
rfingers 7.12502
rthumb -1.65124 -10.7546
lclavicle 7.95139e-015 1.27222e-014
lhumerus 26.6857 -24.5434 83.578
lradius 110.407
lwrist 9.5037
lhand -4.44204 7.96011
lfingers 7.12502
lthumb 21.3294 36.8063
rfemur -34.5388 -14.8681 6.28531
rtibia 81.0707
rfoot -27.2357 -0.277564
rtoes -22.2503
lfemur -30.2266 -3.94333 10.4395
ltibia 58.6263
lfoot -26.0261 -11.9189
ltoes -44.15
90
root 5.59483 14.7399 10.2501 4.71111 -61.8722 -5.04357
lowerback 23.8766 0.336571 -11.0682
upperback 6.98007 -3.00774 -5.32229
thorax -5.29197 -1.61934 1.31393
lowerneck -7.6668 -0.996302 -13.6667
upperneck 11.5755 -1.01695 10.8104
head 4.82928 -0.453063 5.596
rclavicle -3.18055e-015 9.54166e-015
rhumerus -24.621 3.77895 -82.5831
rradius 137.52
rwrist 7.96384
rhand -27.7742 19.3171
rfingers 7.12502
rthumb -1.16786 -10.6595
lclavicle -3.18055e-015 9.54166e-015
lhumerus 26.2967 -23.9768 84.8128
lradius 110.642
lwrist 9.79855
lhand -3.38075 8.12153
lfingers 7.12502
lthumb 22.3485 36.8489
rfemur -34.6867 -16.3942 6.12429
rtibia 82.2628
rfoot -27.7339 0.104199
rtoes -21.2216
lfemur -29.5372 -4.55221 10.3193
ltibia 58.5682
lfoot -26.4978 -10.5931
ltoes -44.0138
91
root 5.55387 14.6939 10.1533 4.45518 -61.9904 -5.02877
lowerback 23.985 0.468 -10.6794
upperback 7.04427 -2.74127 -5.11843
thorax -5.31174 -1.49302 1.25207
lowerneck -7.22678 -1.35092 -13.6982
upperneck 10.8797 -1.55347 11.1719
head 4.61324 -0.697873 5.67227
rclavicle -3.33958e-014 9.54166e-014
rhumerus -24.448 3.46617 -82.3911
rradius 137.947
rwrist 7.61196
rhand -27.8406 19.2933
rfingers 7.12502
rthumb -1.23194 -10.6829
lclavicle -3.33958e-014 9.54166e-014
lhumerus 25.985 -24.1594 85.4647
lradius 111.01
lwrist 10.281
lhand -3.16127 8.47207
lfingers 7.12502
lthumb 22.5592 37.1741
rfemur -35.0942 -17.6466 6.38288
rtibia 83.3174
rfoot -27.8936 0.638104
rtoes -18.6094
lfemur -29.0193 -5.06279 10.5796
ltibia 58.366
lfoot -26.682 -9.31259
ltoes -43.9216
92
root 5.50888 14.6489 10.0448 3.92786 -62.2801 -4.61298
lowerback 23.8596 0.69747 -10.5597
upperback 7.15691 -2.38648 -5.0155
thorax -5.1567 -1.33522 1.19887
lowerneck -7.16527 -1.75893 -13.1244
upperneck 10.4076 -2.16154 11.2423
head 4.53327 -0.965437 5.55287
rclavicle -1.82882e-014 -4.45278e-014
rhumerus -24.1614 3.15942 -82.432
rradius 138.203
rwrist 7.77413
rhand -28.1976 19.1669
rfingers 7.12502
rthumb -1.57678 -10.8071
lclavicle -1.82882e-014 -4.45278e-014
lhumerus 25.6244 -24.379 85.9846
lradius 111.463
lwrist 10.8056
lhand -4.18721 8.53836
lfingers 7.12502
lthumb 21.5742 37.3566
rfemur -35.5711 -18.4823 6.52294
rtibia 84.2166
rfoot -27.9852 1.4185
rtoes -16.8437
lfemur -28.4754 -5.43723 10.6667
ltibia 58.0954
lfoot -27.0072 -7.61443
ltoes -45.3426
93
root 5.47739 14.6054 9.92392 6.01287 -62.3008 -6.927
lowerback 23.77 0.538279 -9.36728
upperback 7.18343 -2.24047 -4.49692
thorax -5.13015 -1.26121 1.06155
lowerneck -7.50171 -2.03051 -12.5543
upperneck 10.3011 -2.5562 11.2758
head 4.60175 -1.12484 5.44024
rclavicle -7.95139e-015 -1.59028e-014
rhumerus -23.5959 3.21739 -82.3592
rradius 138.342
rwrist 7.92664
rhand -28.0626 19.1912
rfingers 7.12502
rthumb -1.44641 -10.7836
lclavicle -7.95139e-015 -1.59028e-014
lhumerus 25.0779 -23.9247 86.4749
lradius 111.936
lwrist 11.286
lhand -5.24141 8.21738
lfingers 7.12502
lthumb 20.5615 37.1485
rfemur -36.2313 -18.8919 8.39181
rtibia 84.8991
rfoot -27.951 1.59379
rtoes -15.4015
lfemur -28.5089 -5.60489 12.4563
ltibia 57.9344
lfoot -26.8615 -7.44107
ltoes -45.8109
94
root 5.44272 14.578 9.81654 6.47165 -62.4992 -7.59479
lowerback 23.7307 0.429895 -8.92983
upperback 7.20842 -2.23452 -4.12187
thorax -5.08717 -1.25907 1.22355
lowerneck -7.11979 -2.06417 -12.1954
upperneck 9.66909 -2.67162 11.496
head 4.35755 -1.16491 5.43572
rclavicle 9.54166e-015 3.33958e-014
rhumerus -22.9701 3.54887 -82.0276
rradius 138.487
rwrist 8.20033
rhand -27.5845 19.3854
rfingers 7.12502
rthumb -0.984599 -10.592
lclavicle 9.54166e-015 3.33958e-014
lhumerus 24.3436 -23.1275 86.9454
lradius 112.513
lwrist 11.8776
lhand -5.30347 7.92926
lfingers 7.12502
lthumb 20.5018 36.8668
rfemur -36.4916 -19.0304 9.0791
rtibia 85.4593
rfoot -28.1995 2.54439
rtoes -11.8835
lfemur -28.309 -6.10427 13.3265
ltibia 57.8791
lfoot -26.0893 -8.28422
ltoes -44.2917
95
root 5.40953 14.5501 9.70065 6.28961 -62.8315 -7.49555
lowerback 23.6788 0.421681 -8.97808
upperback 7.16061 -2.22 -3.77973
thorax -5.09671 -1.24938 1.61861
lowerneck -5.88087 -1.90465 -12.1468
upperneck 8.31573 -2.55738 12.036
head 3.73246 -1.11599 5.5954
rclavicle 7.15625e-015 -6.67916e-014
rhumerus -22.3581 4.02297 -81.7709
rradius 138.471
rwrist 9.12184
rhand -27.2769 19.5431
rfingers 7.12502
rthumb -0.687569 -10.4355
lclavicle 7.15625e-015 -6.67916e-014
lhumerus 23.2298 -22.6558 87.7267
lradius 113.285
lwrist 12.2458
lhand -4.88514 7.42155
lfingers 7.12502
lthumb 20.9038 36.3153
rfemur -36.7247 -19.0234 9.3942
rtibia 85.9112
rfoot -28.6771 3.26189
rtoes -10.0229
lfemur -28.1812 -6.32977 13.83
ltibia 57.9783
lfoot -25.1488 -8.93694
ltoes -43.2193
96
root 5.37705 14.5271 9.58361 6.42053 -63.3507 -7.62459
lowerback 23.4419 0.418753 -8.95564
upperback 7.08731 -2.15829 -3.41923
thorax -5.04796 -1.21765 1.97786
lowerneck -6.47387 -2.1385 -12.0674
upperneck 8.61879 -2.9032 12.5904
head 3.97278 -1.24294 5.74279
rclavicle -3.4191e-014 -4.45278e-014
rhumerus -21.5645 4.39608 -81.6477
rradius 138.29
rwrist 10.1253
rhand -27.041 19.6351
rfingers 7.12502
rthumb -0.45964 -10.3442
lclavicle -3.4191e-014 -4.45278e-014
lhumerus 21.9386 -22.2787 88.6972
lradius 114.267
lwrist 12.4307
lhand -4.60287 7.55299
lfingers 7.12502
lthumb 21.1749 36.4166
rfemur -37.0598 -18.8405 10.0069
rtibia 86.1573
rfoot -29.2645 2.8262
rtoes -14.2156
lfemur -28.1077 -6.38205 14.3551
ltibia 58.1962
lfoot -24.4161 -8.42392
ltoes -43.9669
97
root 5.32737 14.5367 9.50382 6.30585 -64.3157 -7.59366
lowerback 22.8984 0.456362 -8.79084
upperback 7.06728 -1.98099 -3.11734
thorax -4.80612 -1.14033 2.15605
lowerneck -6.42726 -2.14456 -11.7929
upperneck 8.63529 -2.96834 12.7591
head 3.97617 -1.26181 5.74704
rclavicle 1.43125e-014 -2.54444e-014
rhumerus -20.7076 4.76607 -81.419
rradius 138.16
rwrist 10.5544
rhand -26.5871 19.8589
rfingers 7.12502
rthumb -0.0212982 -10.1209
lclavicle 1.43125e-014 -2.54444e-014
lhumerus 20.8765 -21.5956 89.0958
lradius 115.23
lwrist 12.7748
lhand -4.76606 8.17322
lfingers 7.12502
lthumb 21.0182 37.0543
rfemur -37.1011 -18.2744 10.3345
rtibia 86.0695
rfoot -29.8321 2.01143
rtoes -17.2279
lfemur -27.6557 -6.83981 14.4036
ltibia 58.6186
lfoot -23.4986 -7.35243
ltoes -44.2145
98
root 5.29525 14.5507 9.3967 6.24958 -64.9905 -7.57182
lowerback 22.7569 0.44341 -8.84443
upperback 6.86721 -1.95376 -2.60172
thorax -4.9328 -1.11274 2.73821
lowerneck -6.66895 -2.21399 -11.0023
upperneck 8.8597 -3.09897 12.325
head 4.08323 -1.31272 5.46592
rclavicle 1.11319e-014 9.54166e-015
rhumerus -19.8672 5.24292 -80.9232
rradius 138.077
rwrist 10.5754
rhand -25.9419 20.1187
rfingers 7.12502
rthumb 0.601849 -9.86024
lclavicle 1.11319e-014 9.54166e-015
lhumerus 19.7247 -20.8003 89.2194
lradius 116.124
lwrist 13.0624
lhand -4.8433 8.14088
lfingers 7.12502
lthumb 20.944 37.0302
rfemur -37.1781 -17.9294 10.7895
rtibia 85.9282
rfoot -30.1235 1.90176
rtoes -17.5938
lfemur -27.6671 -7.41256 14.7103
ltibia 59.2342
lfoot -21.6851 -7.95578
ltoes -42.0803
99
root 5.2671 14.5685 9.30846 6.49231 -65.6865 -7.85066
lowerback 22.5701 0.355186 -8.56859
upperback 6.66582 -1.94278 -2.06886
thorax -5.04981 -1.09211 3.15723
lowerneck -6.65926 -2.24673 -10.0096
upperneck 8.8256 -3.16933 11.5686
head 4.054 -1.35049 5.05028
rclavicle -3.97569e-014 4.77083e-014
rhumerus -18.9964 5.71562 -80.3234
rradius 138.027
rwrist 10.6367
rhand -25.6032 20.0018
rfingers 7.12502
rthumb 0.928982 -9.97589
lclavicle -3.97569e-014 4.77083e-014
lhumerus 18.4057 -20.1807 89.4279
lradius 117.116
lwrist 13.2089
lhand -5.17571 8.37292
lfingers 7.12502
lthumb 20.6246 37.2972
rfemur -37.2843 -17.7168 11.2196
rtibia 85.7065
rfoot -30.2097 3.33775
rtoes -14.3952
lfemur -27.8914 -7.94766 15.0247
ltibia 60.1601
lfoot -19.6862 -7.8068
ltoes -40.2453
